F1 Bahrain GP aired on Sky Sports F1. Commentary by Martin Brundle and his team and from the pits its Ted. 

QUALFYING ONLY, PRE/POST QUALIFYING SHOW NOT INCLUDED (it might be uploaded later).

Quality : 720p (check screens at the bottom)

Runtime : 1 Hour and 4 Minutes (from the start of the green light to drivers going for the weigh in)

Technical Information : 

Video
ID                             : 72 (0x48)
Menu ID                        : 1 (0x1)
Format                         : AVC
Format/Info                    : Advanced Video Codec
Format profile                 : High@L5.1
Format settings, CABAC         : Yes
Format settings, ReFrames      : 7 frames
Codec ID                       : 27
Duration                       : 1h 4mn
Bit rate                       : 1 904 Kbps
Width                          : 1 280 pixels
Height                         : 720 pixels
Display aspect ratio           : 16:9
Frame rate                     : 25.000 fps
Color space                    : YUV
Chroma subsampling             : 4:2:0
Bit depth                      : 8 bits
Scan type                      : Progressive
Bits/(Pixel*Frame)             : 0.083
Stream size                    : 874 MiB (90%)
Writing library                : x264 core 115 r2013 6fce39a

Audio
ID                             : 71 (0x47)
Menu ID                        : 1 (0x1)
Format                         : MPEG Audio
Format version                 : Version 1
Format profile                 : Layer 3
Mode                           : Joint stereo
Mode extension                 : MS Stereo
Codec ID                       : 3
Duration                       : 1h 4mn
Bit rate mode                  : Constant
Bit rate                       : 96.0 Kbps
Channel(s)                     : 2 channels
Sampling rate                  : 44.1 KHz
Compression mode               : Lossy
Delay relative to video        : 13ms
Stream size                    : 44.4 MiB (5%)


Screens :

 
http://i.imgur.com/O8tkot7.jpg
 
http://i.imgur.com/5sclHkw.jpg
 
http://i.imgur.com/UuMF8bC.jpg